<?xml version="1.0" encoding="utf-8"?>
<!-- Generator: Adobe Illustrator 22.0.0, SVG Export Plug-In . SVG Version: 6.00 Build 0)  -->
<svg version="1.1" id="Layer_1" xmlns="http://www.w3.org/2000/svg" xmlns:xlink="http://www.w3.org/1999/xlink" x="0px" y="0px"
	 viewBox="0 0 1080 1080" style="enable-background:new 0 0 1080 1080;" xml:space="preserve">
<style type="text/css">
	.st0{fill:#8cc63f;}
</style>
<g>
	<g>
		<path class="st0" d="M840.4,779.8c0,153.7-105.9,300.2-320.5,300.2c-41.1,0-80.5-9.2-110.5-22.2c-24.8-10.7-37.1-38.7-28.1-64.2
			l0,0c9.3-26.4,38.2-40.6,64.7-31.4c22.3,7.7,48.7,11.9,79.7,11.9c132,0,203-87,203-207.4c0-134.9-89.9-204.5-252.3-204.5h-2.2
			c-30,0-54.4-24.3-54.4-54.4v0c0-30,24.3-54.4,54.4-54.4h2.2c130.5,0,207.4-75.4,207.4-176.9c0-114.6-68.2-168.2-194.3-168.2
			c-162.4,0-210.3,92.8-210.3,271.2v628c0,32-26,58-58,58h0c-32,0-58-26-58-58V344.7C163.1,146,242.9-0.5,501.1-0.5
			c223.3,0,301.7,150.8,301.7,269.8c0,95.4-64.9,225.5-232,226.2c-0.8,0-1.5,0.6-1.5,1.5l0,0c0,0.8,0.7,1.5,1.5,1.5
			C771.1,499.2,840.4,651,840.4,779.8z"/>
	</g>
</g>
</svg>
